<svg xmlns="http://www.w3.org/2000/svg" width="52" height="48" viewBox="0 0 52 48">
  <defs>
    
  </defs>
  <path class="cls-1" d="M334.849,871.1a1.736,1.736,0,0,1,1.072,1.07,0.866,0.866,0,0,0,.821.583,0.84,0.84,0,0,0,.277-0.047,0.853,0.853,0,0,0,.543-1.086,3.468,3.468,0,0,0-2.145-2.14,0.869,0.869,0,0,0-1.1.528A0.856,0.856,0,0,0,334.849,871.1ZM348.133,859a6.934,6.934,0,1,0-6.933,6.858A6.9,6.9,0,0,0,348.133,859ZM336,859a5.2,5.2,0,1,1,5.2,5.144A5.177,5.177,0,0,1,336,859Zm-9.534,13.715a6.934,6.934,0,1,0,6.934-6.857A6.9,6.9,0,0,0,326.466,872.714Zm12.134,0a5.2,5.2,0,1,1-5.2-5.143A5.177,5.177,0,0,1,338.6,872.714Zm35.248-4.709c-0.2-.386-4.432-7.82-7.946-13.988l-5.275-9.255c-1.383-2.427-2.04-3.579-2.426-4.125l0.055-.028a10.446,10.446,0,0,0-18.5-.03c-0.619,1.084-15.16,26.573-15.609,27.439a10.082,10.082,0,0,0-1.145,4.7A10.355,10.355,0,0,0,333.4,883h27.733a0.857,0.857,0,1,0,0-1.713H333.4a8.631,8.631,0,0,1-8.667-8.572,8.4,8.4,0,0,1,.954-3.913c0.347-.67,10.341-18.2,15.593-27.409a8.7,8.7,0,0,1,15.432,0l0.027,0.048c0.238,0.411,15.221,26.687,15.569,27.353a8.4,8.4,0,0,1,.958,3.923,8.628,8.628,0,0,1-8.666,8.571,0.857,0.857,0,1,0,0,1.714A10.354,10.354,0,0,0,375,872.714,10.233,10.233,0,0,0,373.848,868.005Zm-32.077-10.624a1.73,1.73,0,0,1,1.071,1.069,0.866,0.866,0,0,0,.821.583,0.834,0.834,0,0,0,.277-0.046,0.854,0.854,0,0,0,.544-1.086,3.47,3.47,0,0,0-2.145-2.14,0.868,0.868,0,0,0-1.1.528A0.857,0.857,0,0,0,341.771,857.381Zm15.6,0a1.73,1.73,0,0,1,1.071,1.069,0.866,0.866,0,0,0,.821.583,0.838,0.838,0,0,0,.277-0.046,0.853,0.853,0,0,0,.543-1.086,3.466,3.466,0,0,0-2.144-2.14,0.869,0.869,0,0,0-1.1.528A0.856,0.856,0,0,0,357.371,857.381ZM363.733,859a6.934,6.934,0,1,0-6.933,6.858A6.9,6.9,0,0,0,363.733,859ZM351.6,859a5.2,5.2,0,1,1,5.2,5.144A5.177,5.177,0,0,1,351.6,859Zm14.449,12.1a1.736,1.736,0,0,1,1.072,1.07,0.866,0.866,0,0,0,.821.583,0.84,0.84,0,0,0,.277-0.047,0.853,0.853,0,0,0,.543-1.086,3.468,3.468,0,0,0-2.145-2.14,0.868,0.868,0,0,0-1.1.528A0.856,0.856,0,0,0,366.049,871.1Zm-16.478-27.429a1.734,1.734,0,0,1,1.071,1.07,0.867,0.867,0,0,0,1.1.537,0.853,0.853,0,0,0,.543-1.086,3.468,3.468,0,0,0-2.144-2.141,0.871,0.871,0,0,0-1.1.529A0.855,0.855,0,0,0,349.571,843.666Zm15.029,35.9a6.857,6.857,0,1,0-6.934-6.857A6.9,6.9,0,0,0,364.6,879.571Zm0-12a5.143,5.143,0,1,1-5.2,5.143A5.178,5.178,0,0,1,364.6,867.571Zm-8.667-22.285A6.934,6.934,0,1,0,349,852.142,6.9,6.9,0,0,0,355.933,845.286Zm-12.133,0a5.2,5.2,0,1,1,5.2,5.142A5.178,5.178,0,0,1,343.8,845.286Zm5.771,25.809a1.732,1.732,0,0,1,1.071,1.07,0.866,0.866,0,0,0,.821.583,0.835,0.835,0,0,0,.277-0.047,0.853,0.853,0,0,0,.543-1.086,3.466,3.466,0,0,0-2.144-2.14,0.869,0.869,0,0,0-1.1.528A0.856,0.856,0,0,0,349.571,871.1ZM349,879.571a6.857,6.857,0,1,0-6.934-6.857A6.9,6.9,0,0,0,349,879.571Zm0-12a5.143,5.143,0,1,1-5.2,5.143A5.178,5.178,0,0,1,349,867.571Z" transform="translate(-323 -835)"/>
</svg>
