<svg xmlns="http://www.w3.org/2000/svg" width="46" height="35" viewBox="0 0 46 35">
  <defs>
    <style>
      .cls-1 {
        fill: #025cb2;
        fill-rule: evenodd;
      }
    </style>
  </defs>
  <path id="Forma_1" data-name="Forma 1" class="cls-1" d="M1296.53,848.442h-1.69a0.861,0.861,0,0,0,0,1.722h1.69A0.861,0.861,0,0,0,1296.53,848.442Zm-31.09,0h-1.08a1.99,1.99,0,0,0-1.97,2.008v0.423a0.845,0.845,0,1,0,1.69,0V850.45a0.3,0.3,0,0,1,.08-0.2,0.279,0.279,0,0,1,.2-0.084h1.08A0.861,0.861,0,0,0,1265.44,848.442Zm-2.21,18.175a0.854,0.854,0,0,0-.84.861V870.8a0.845,0.845,0,1,0,1.69,0v-3.321A0.856,0.856,0,0,0,1263.23,866.617Zm2.2,8.219h-1.07a0.28,0.28,0,0,1-.2-0.085,0.3,0.3,0,0,1-.08-0.2v-0.43a0.845,0.845,0,1,0-1.69,0v0.43a1.989,1.989,0,0,0,1.97,2.008h1.07A0.861,0.861,0,0,0,1265.43,874.836Zm6.54-26.394h-3.26a0.861,0.861,0,0,0,0,1.722h3.26A0.861,0.861,0,0,0,1271.97,848.442Zm6.54,0h-3.27a0.861,0.861,0,0,0,0,1.722h3.27A0.861,0.861,0,0,0,1278.51,848.442Zm-15.28,4.892a0.853,0.853,0,0,0-.84.86v3.321a0.845,0.845,0,1,0,1.69,0v-3.321A0.855,0.855,0,0,0,1263.23,853.334Zm28.34-4.892h-3.26a0.861,0.861,0,0,0,0,1.722h3.26A0.861,0.861,0,0,0,1291.57,848.442Zm-28.34,11.533a0.853,0.853,0,0,0-.84.861v3.321a0.845,0.845,0,1,0,1.69,0v-3.321A0.855,0.855,0,0,0,1263.23,859.975Zm21.81-11.533h-3.27a0.861,0.861,0,0,0,0,1.722h3.27A0.861,0.861,0,0,0,1285.04,848.442Zm6.53,26.394h-3.27a0.861,0.861,0,0,0,0,1.721h3.27A0.861,0.861,0,0,0,1291.57,874.836Zm-19.6,0h-3.27a0.861,0.861,0,0,0,0,1.721h3.27A0.861,0.861,0,0,0,1271.97,874.836Zm6.53,0h-3.27a0.861,0.861,0,0,0,0,1.721h3.27A0.861,0.861,0,0,0,1278.5,874.836Zm6.53,0h-3.26a0.861,0.861,0,0,0,0,1.721h3.26A0.861,0.861,0,0,0,1285.03,874.836Zm11.5,0h-1.69a0.861,0.861,0,0,0,0,1.721h1.69A0.861,0.861,0,0,0,1296.53,874.836Zm5.79-17.5h-0.99v-9.181a3.132,3.132,0,0,0-3.1-3.155H1262.1a3.132,3.132,0,0,0-3.1,3.155v28.689a3.134,3.134,0,0,0,3.1,3.156h36.13a3.134,3.134,0,0,0,3.1-3.156v-8.607h0.99a2.713,2.713,0,0,0,2.68-2.724v-5.452A2.713,2.713,0,0,0,1302.32,857.336Zm-2.68,19.508a1.437,1.437,0,0,1-.42,1.013,1.39,1.39,0,0,1-.99.422H1262.1a1.394,1.394,0,0,1-.99-0.422,1.437,1.437,0,0,1-.42-1.013V848.155a1.432,1.432,0,0,1,.42-1.012,1.39,1.39,0,0,1,.99-0.422h36.13a1.39,1.39,0,0,1,.99.422,1.432,1.432,0,0,1,.42,1.012v9.181h-5.65a5.451,5.451,0,0,0,0,10.9h5.65v8.607Zm3.67-11.331a1.014,1.014,0,0,1-.99,1h-8.33a3.73,3.73,0,0,1,0-7.459h8.33a1.015,1.015,0,0,1,.99,1v5.452Zm-8.75-4.159a1.434,1.434,0,1,1-1.41,1.434A1.421,1.421,0,0,1,1294.56,861.354Z" transform="translate(-1259 -845)"/>
</svg>
