<svg xmlns="http://www.w3.org/2000/svg" width="45" height="45" viewBox="0 0 45 45">
  <defs>
    <style>
      .cls-1 {
        fill: #025cb2;
        fill-rule: evenodd;
      }
    </style>
  </defs>
  <path class="cls-1" d="M804.25,846.5a2.254,2.254,0,0,0,2.25-2.251v-3a2.25,2.25,0,0,0-4.5,0v3A2.253,2.253,0,0,0,804.25,846.5Zm-0.75-5.251a0.75,0.75,0,0,1,1.5,0v3a0.75,0.75,0,1,1-1.5,0v-3Zm-9.75,5.251a0.75,0.75,0,0,0,.75-0.75v-1.5A2.471,2.471,0,0,1,796.75,842h3a0.75,0.75,0,1,0,0-1.5h-3a3.949,3.949,0,0,0-3.75,3.749v1.5A0.75,0.75,0,0,0,793.75,846.5Zm27.75,36H796.75a2.472,2.472,0,0,1-2.25-2.25V849.5h39.75a0.75,0.75,0,0,0,0-1.5h-40.5a0.75,0.75,0,0,0-.75.75v31.5a3.95,3.95,0,0,0,3.75,3.75H821.5A0.75,0.75,0,0,0,821.5,882.5Zm12.75-15.75A0.75,0.75,0,0,0,835,866V851.75a0.75,0.75,0,0,0-.75-0.75h-37.5a0.75,0.75,0,0,0-.75.75V878a3,3,0,0,0,3,3h21a0.75,0.75,0,0,0,0-1.5H799a1.5,1.5,0,0,1-1.5-1.5V852.5h36V866A0.75,0.75,0,0,0,834.25,866.75Zm0-26.25h-3a0.75,0.75,0,1,0,0,1.5h3a2.472,2.472,0,0,1,2.25,2.249V867.5a0.75,0.75,0,0,0,1.5,0V844.249A3.95,3.95,0,0,0,834.25,840.5Zm-15,6a2.254,2.254,0,0,0,2.25-2.251v-3a2.25,2.25,0,0,0-4.5,0v3A2.253,2.253,0,0,0,819.25,846.5Zm-0.75-5.251a0.75,0.75,0,0,1,1.5,0v3a0.75,0.75,0,1,1-1.5,0v-3Zm-4.5,15a0.75,0.75,0,0,0-.75-0.75h-3a0.75,0.75,0,0,0-.75.75v3a0.75,0.75,0,0,0,.75.75h3a0.75,0.75,0,0,0,.75-0.75v-3Zm-1.5,2.25H811V857h1.5v1.5Zm14.25-12a2.254,2.254,0,0,0,2.25-2.251v-3a2.25,2.25,0,0,0-4.5,0v3A2.253,2.253,0,0,0,826.75,846.5ZM826,841.249a0.75,0.75,0,0,1,1.5,0v3a0.75,0.75,0,1,1-1.5,0v-3ZM811.75,846.5a2.254,2.254,0,0,0,2.25-2.251v-3a2.25,2.25,0,0,0-4.5,0v3A2.253,2.253,0,0,0,811.75,846.5ZM811,841.249a0.75,0.75,0,0,1,1.5,0v3a0.75,0.75,0,1,1-1.5,0v-3ZM829.75,867.5a8.25,8.25,0,1,0,8.25,8.25A8.259,8.259,0,0,0,829.75,867.5Zm0,15a6.751,6.751,0,1,1,6.75-6.75A6.758,6.758,0,0,1,829.75,882.5Zm-8.25-26.25a0.75,0.75,0,0,0-.75-0.75h-3a0.75,0.75,0,0,0-.75.75v3a0.75,0.75,0,0,0,.75.75h3a0.75,0.75,0,0,0,.75-0.75v-3h0ZM820,858.5h-1.5V857H820v1.5Zm-6,5.25a0.751,0.751,0,0,0-.75-0.751h-3a0.751,0.751,0,0,0-.75.751v3a0.75,0.75,0,0,0,.75.75h3a0.75,0.75,0,0,0,.75-0.75v-3ZM812.5,866H811v-1.5h1.5V866Zm-6.75,4.5h-3a0.75,0.75,0,0,0-.75.75v3a0.75,0.75,0,0,0,.75.751h3a0.75,0.75,0,0,0,.75-0.751v-3A0.75,0.75,0,0,0,805.75,870.5Zm-0.75,3h-1.5V872H805v1.5Zm8.25-3h-3a0.75,0.75,0,0,0-.75.75v3a0.75,0.75,0,0,0,.75.751h3a0.75,0.75,0,0,0,.75-0.751v-3A0.75,0.75,0,0,0,813.25,870.5Zm-0.75,3H811V872h1.5v1.5Zm-6-9.75a0.751,0.751,0,0,0-.75-0.751h-3a0.751,0.751,0,0,0-.75.751v3a0.75,0.75,0,0,0,.75.75h3a0.75,0.75,0,0,0,.75-0.75v-3ZM805,866h-1.5v-1.5H805V866Zm25.5,9v-2.25a0.75,0.75,0,0,0-1.5,0v3a0.75,0.75,0,0,0,.75.75h4.5a0.75,0.75,0,0,0,0-1.5H830.5ZM829,856.25a0.75,0.75,0,0,0-.75-0.75h-3a0.75,0.75,0,0,0-.75.75v3a0.75,0.75,0,0,0,.75.75h3a0.75,0.75,0,0,0,.75-0.75v-3Zm-1.5,2.25H826V857h1.5v1.5Zm0.75,7.5a0.749,0.749,0,0,0,.75-0.749v-1.5a0.751,0.751,0,0,0-.75-0.751h-3a0.751,0.751,0,0,0-.75.751v1.5a0.75,0.75,0,0,0,1.5,0V864.5h1.5v0.75A0.749,0.749,0,0,0,828.25,866Zm-9,6a0.75,0.75,0,0,0,0-1.5h-1.5a0.75,0.75,0,0,0-.75.75v3a0.75,0.75,0,0,0,.75.75h1.5a0.75,0.75,0,0,0,0-1.5H818.5V872h0.75ZM806.5,856.25a0.75,0.75,0,0,0-.75-0.75h-3a0.75,0.75,0,0,0-.75.75v3a0.75,0.75,0,0,0,.75.75h3a0.75,0.75,0,0,0,.75-0.75v-3ZM805,858.5h-1.5V857H805v1.5Zm16.5,8.25v-3a0.751,0.751,0,0,0-.75-0.751h-3a0.751,0.751,0,0,0-.75.751v3a0.75,0.75,0,0,0,.75.75h3A0.75,0.75,0,0,0,821.5,866.75ZM820,866h-1.5v-1.5H820V866Z" transform="translate(-793 -839)"/>
</svg>
