<svg xmlns="http://www.w3.org/2000/svg" width="34" height="34" viewBox="0 0 34 34">
  <defs>
    <style>
      .cls-1 {
        fill: #fff;
        fill-rule: evenodd;
        opacity: 0.55;
      }
    </style>
  </defs>
  <path id="Forma_1" data-name="Forma 1" class="cls-1" d="M1787,648.4a3.4,3.4,0,1,0-3.4-3.4A3.408,3.408,0,0,0,1787,648.4Zm7.43-7.565V637.56H1794l-2.85.009,0.01,3.278ZM1787,628a17,17,0,1,0,16.99,17A17.02,17.02,0,0,0,1787,628Zm9.66,15.013v7.913a3.735,3.735,0,0,1-3.73,3.737h-11.86a3.743,3.743,0,0,1-3.74-3.737V639.07a3.743,3.743,0,0,1,3.74-3.736h11.86a3.735,3.735,0,0,1,3.73,3.736v3.946ZM1792.29,645a5.29,5.29,0,0,1-10.58,0,5.235,5.235,0,0,1,.39-1.983h-2.88v7.913a1.851,1.851,0,0,0,1.85,1.851h11.86a1.851,1.851,0,0,0,1.85-1.851v-7.913h-2.89A5.242,5.242,0,0,1,1792.29,645Z" transform="translate(-1770 -628)"/>
</svg>
