<svg xmlns="http://www.w3.org/2000/svg" width="28" height="28" viewBox="0 0 28 28">
  <defs>
    <style>
      .cls-1 {
        fill: #0778e3;
        fill-rule: evenodd;
      }
    </style>
  </defs>
  <path id="Forma_1_копия_20" data-name="Forma 1 копия 20" class="cls-1" d="M1530,6837.8a2.8,2.8,0,1,0-2.8-2.8A2.808,2.808,0,0,0,1530,6837.8Zm6.12-6.23v-2.7h-0.35l-2.35.01,0.01,2.7ZM1530,6821a14,14,0,1,0,14,14A14.015,14.015,0,0,0,1530,6821Zm7.96,12.37v6.51a3.081,3.081,0,0,1-3.08,3.08h-9.76a3.081,3.081,0,0,1-3.08-3.08v-9.76a3.081,3.081,0,0,1,3.08-3.08h9.76a3.081,3.081,0,0,1,3.08,3.08v3.25Zm-3.61,1.63a4.35,4.35,0,0,1-8.7,0,4.193,4.193,0,0,1,.32-1.63h-2.38v6.51a1.53,1.53,0,0,0,1.53,1.53h9.76a1.536,1.536,0,0,0,1.53-1.53v-6.51h-2.38A4.193,4.193,0,0,1,1534.35,6835Z" transform="translate(-1516 -6821)"/>
</svg>
