<svg xmlns="http://www.w3.org/2000/svg" width="28" height="28" viewBox="0 0 28 28">
  <defs>
    <style>
      .cls-1 {
        fill: #0778e3;
        fill-rule: evenodd;
      }
    </style>
  </defs>
  <path id="Forma_1_копия_21" data-name="Forma 1 копия 21" class="cls-1" d="M1563,6821a14,14,0,1,0,14,14A14,14,0,0,0,1563,6821Zm7.1,15.51c0.65,0.64,1.34,1.24,1.93,1.94a6.14,6.14,0,0,1,.69,1,0.708,0.708,0,0,1-.44,1.11h-2.86a2.246,2.246,0,0,1-1.83-.74c-0.4-.41-0.77-0.84-1.15-1.26a2.794,2.794,0,0,0-.51-0.46,0.607,0.607,0,0,0-.96.24,2.923,2.923,0,0,0-.3,1.34,0.76,0.76,0,0,1-.91.88,7.354,7.354,0,0,1-4.11-.88,9.1,9.1,0,0,1-2.76-2.59,34.947,34.947,0,0,1-3.64-6.48c-0.23-.51-0.06-0.78.51-0.79,0.93-.02,1.87-0.02,2.8,0a0.81,0.81,0,0,1,.78.58,17.715,17.715,0,0,0,1.91,3.53,2.842,2.842,0,0,0,.72.79,0.436,0.436,0,0,0,.74-0.22,2.394,2.394,0,0,0,.16-0.74,10.683,10.683,0,0,0-.04-2.59,1.086,1.086,0,0,0-.92-0.99c-0.28-.06-0.24-0.16-0.1-0.31a1.023,1.023,0,0,1,.88-0.44h3.24a0.768,0.768,0,0,1,.69.84v3.6a1.06,1.06,0,0,0,.46.92,0.625,0.625,0,0,0,.65-0.31,11.323,11.323,0,0,0,1.83-2.81c0.21-.44.4-0.9,0.59-1.36a0.7,0.7,0,0,1,.73-0.51l3.12,0.01a2.715,2.715,0,0,1,.28.01,0.539,0.539,0,0,1,.5.83,7.442,7.442,0,0,1-1.24,2.15c-0.52.72-1.07,1.42-1.59,2.14A0.978,0.978,0,0,0,1570.1,6836.51Z" transform="translate(-1549 -6821)"/>
</svg>
