<svg xmlns="http://www.w3.org/2000/svg" width="34" height="34" viewBox="0 0 34 34">
  <defs>
    <style>
      .cls-1 {
        fill: #fff;
        fill-rule: evenodd;
        opacity: 0.55;
      }
    </style>
  </defs>
  <path id="Forma_1" data-name="Forma 1" class="cls-1" d="M1787,669a17,17,0,1,0,17,17A17,17,0,0,0,1787,669Zm8.62,18.838a32.444,32.444,0,0,1,2.35,2.356,6.6,6.6,0,0,1,.83,1.207,0.863,0.863,0,0,1-.53,1.351h-3.48a2.7,2.7,0,0,1-2.22-.9c-0.48-.491-0.93-1.014-1.39-1.52a3.228,3.228,0,0,0-.63-0.559,0.729,0.729,0,0,0-1.16.282,3.654,3.654,0,0,0-.36,1.626,0.927,0.927,0,0,1-1.11,1.074,8.962,8.962,0,0,1-4.99-1.072,10.943,10.943,0,0,1-3.35-3.139,41.779,41.779,0,0,1-4.41-7.87c-0.28-.62-0.08-0.952.61-0.965,1.13-.022,2.27-0.019,3.4,0a1,1,0,0,1,.95.709,21.619,21.619,0,0,0,2.31,4.282,3.591,3.591,0,0,0,.88.96,0.529,0.529,0,0,0,.9-0.265,3.077,3.077,0,0,0,.2-0.9,13.255,13.255,0,0,0-.06-3.147,1.3,1.3,0,0,0-1.12-1.2c-0.33-.063-0.28-0.186-0.12-0.376a1.259,1.259,0,0,1,1.07-.532h3.94a0.938,0.938,0,0,1,.84,1.024v4.373a1.284,1.284,0,0,0,.56,1.117,0.756,0.756,0,0,0,.78-0.385,13.36,13.36,0,0,0,2.22-3.407c0.27-.539.5-1.1,0.72-1.656a0.841,0.841,0,0,1,.89-0.61l3.79,0a1.925,1.925,0,0,1,.33.02,0.658,0.658,0,0,1,.62,1.007,9.455,9.455,0,0,1-1.51,2.612c-0.63.875-1.31,1.719-1.93,2.6A1.188,1.188,0,0,0,1795.62,687.839Z" transform="translate(-1770 -669)"/>
</svg>
