<svg xmlns="http://www.w3.org/2000/svg" width="28" height="28" viewBox="0 0 28 28">
  <defs>
    <style>
      .cls-1 {
        fill: #0778e3;
        fill-rule: evenodd;
      }
    </style>
  </defs>
  <path id="Forma_1_копия_22" data-name="Forma 1 копия 22" class="cls-1" d="M1593.45,6838.07l6.28-3.26q-3.15-1.65-6.28-3.28v6.54ZM1596,6821a14,14,0,1,0,14,14A14,14,0,0,0,1596,6821Zm9.54,18.67a2.485,2.485,0,0,1-2.14,1.94,97.926,97.926,0,0,1-14.8,0,2.485,2.485,0,0,1-2.14-1.94,32.242,32.242,0,0,1,0-9.34,2.531,2.531,0,0,1,2.14-1.95,101.679,101.679,0,0,1,14.81,0,2.508,2.508,0,0,1,2.13,1.95,20.786,20.786,0,0,1,.34,4.67A21.387,21.387,0,0,1,1605.54,6839.67Z" transform="translate(-1582 -6821)"/>
</svg>
