<svg xmlns="http://www.w3.org/2000/svg" width="34" height="34" viewBox="0 0 34 34">
  <defs>
    <style>
      .cls-1 {
        fill: #fff;
        fill-rule: evenodd;
        opacity: 0.55;
      }
    </style>
  </defs>
  <path id="Forma_1" data-name="Forma 1" class="cls-1" d="M1783.9,730.725l7.63-3.956c-2.56-1.336-5.08-2.654-7.63-3.981v7.937ZM1787,710a17,17,0,1,0,17,17A17,17,0,0,0,1787,710Zm11.58,22.673a3.031,3.031,0,0,1-2.59,2.359,121.883,121.883,0,0,1-17.98,0,3.02,3.02,0,0,1-2.59-2.359,38.537,38.537,0,0,1,0-11.348,3.031,3.031,0,0,1,2.59-2.359,121.518,121.518,0,0,1,17.98,0,3.042,3.042,0,0,1,2.6,2.359A39,39,0,0,1,1798.58,732.674Z" transform="translate(-1770 -710)"/>
</svg>
